<svg id="Layer_1" xmlns="http://www.w3.org/2000/svg" viewBox="0 0 500 209.6"><style>.st0{fill:#00afa5}.st1{fill:#fff}</style><path class="st0" d="M209.6 104.8c0 57.9-46.9 104.8-104.8 104.8S0 162.7 0 104.8 46.9 0 104.8 0s104.8 46.9 104.8 104.8z"/><path class="st1" d="M79.9 73.3c0-1.7 1.6-3.3 3.3-3.3h3.3c1.6 0 2.4.7 2.8 2.1l1.6 5.4s8.2-9.2 22.6-9.2c10.3 0 17.7 4 22.3 11.3.9-.7 12-11.3 25.9-11.3 20.2 0 26.9 13.2 26.9 31.3v36.7c0 1.7-1.6 3.3-3.3 3.3h-5.6c-1.7 0-3.3-1.6-3.3-3.3V99.6c0-13-5.6-19.6-15.6-19.6-11.3 0-18.8 7.5-21.2 9.7.5 3 .9 6.3.9 9.9v36.7c0 1.7-1.6 3.3-3.3 3.3h-5.6c-1.7 0-3.3-1.6-3.3-3.3V99.6c0-13.2-5.9-19.6-16.5-19.6C99.5 80 92 89.9 92 89.9v46.4c0 1.7-1.6 3.3-3.3 3.3h-5.4c-1.7 0-3.3-1.6-3.3-3.3v-63z"/><path class="st0" d="M235 140.5h-5.4c-2.3 0-4.2-2-4.2-4.2v-63c0-2.3 2-4.2 4.2-4.2h5.4c2.3 0 4.2 2 4.2 4.2v62.9c0 2.3-1.9 4.3-4.2 4.3zm-3-101.7c-5 0-9.1-4.1-9.1-9.1 0-5.2 4-9.3 9.1-9.3 5.2 0 9.3 4.1 9.3 9.3 0 5.1-4 9.1-9.3 9.1zM271.9 140.5h-5.4c-2.3 0-4.2-2-4.2-4.2V21.2c0-2.3 2-4.2 4.2-4.2h5.4c2.3 0 4.2 2 4.2 4.2v115.1c0 2.2-2 4.2-4.2 4.2zM360.5 140.5H351c-1.9 0-3.4-1.1-4-1.6l-.1-.1-33.7-32v29.4c0 2.3-2 4.2-4.2 4.2h-5.4c-2.3 0-4.2-2-4.2-4.2v-115c0-2.3 2-4.2 4.2-4.2h5.4c2.3 0 4.2 2 4.2 4.2v73.3l28-23.1c1.1-1 2.9-2.3 4.8-2.3h9.4c1.5 0 2.7.7 3.1 2 .5 1.4.1 3.1-.9 4l-32.2 25.7 37.6 33.7c1 .9 1.4 2.6.9 3.9-.6 1.3-1.8 2.1-3.4 2.1zM404.4 142.2c-20.3 0-35-15.8-35-37.4s14.7-37.4 35-37.4c18.8 0 32.4 13.8 32.4 32.8 0 1.2-.2 3.5-.4 4.8-.2 2.1-2 3.8-4.1 3.8h-49c1.2 11.3 11.2 20.7 22.3 20.7 5.6 0 11.1-1.7 16.7-5.1l.6-.4c1.2-.7 2.1-1.2 3.1-1.2 1.2 0 2 .9 2.4 1.5.5.7 1 1.3 1.5 2 .5.6.9 1.3 1.5 2 .7.8 1.4 1.8 1.3 3-.1 1-.8 1.8-2.1 2.8-4.8 3.7-14.5 8.1-26.2 8.1zm-20.8-45.1h39.3c-1-9.6-9.1-17.2-18.5-17.2-10.5-.1-19.1 7.1-20.8 17.2zM463.5 140.5h-5.4c-2.3 0-4.2-2-4.2-4.2v-63c0-2.3 2-4.2 4.2-4.2h3.3c1.9 0 3.4 1.2 3.9 3.2l.9 3.3c2.5-2.7 9.1-8.2 20.4-8.2 3.8 0 10.6.4 12.7 3.4.5.7 1 1.9.4 3.6l-2.1 5.9c-.8 2.2-2.2 2.6-3.3 2.6-.6 0-1.3-.2-2.1-.5-1.4-.6-3.9-1.3-6.4-1.3-11.6 0-17.1 7.7-18 9.1v46.1c0 2.2-2 4.2-4.3 4.2z"/></svg>