<svg version="1.0" xmlns="http://www.w3.org/2000/svg" width="396" height="108.37436953598917" viewBox="0 0 320 87.57524810989024"><defs></defs><g transform="matrix(1.3890067541979432,0,0,1.3890067541979432,-6.9502178281611116,-25.66271365495204)" fill="#c69f8d"><path xmlns="http://www.w3.org/2000/svg" fill-rule="evenodd" clip-rule="evenodd" d="M93.8476563,53.0791016  c0.765625,1.1835938,1.1484375,3.0097656,1.1484375,5.4804688c-0.1044922,8.7675781-5.1855469,15.03125-15.2436523,18.7890625  c-0.6611328,0.3476563-1.2705078,0.609375-1.8271484,0.7832031h-0.15625l-0.1044922,0.1054688h-0.2612305l-3.8110352,1.0429688  c-6.855957,1.4960938-18.3759766,2.2441406-34.559082,2.2441406c-10.2319336,0-17.4882813-1.3398438-21.769043-4.0195313v-0.0507813  h-0.0522461v-0.1054688h-0.2089844l-2.0878906-1.9316406v-0.0507813c-2.9233398-3.2714844-4.7158203-7.9511719-5.3769531-14.0410156  c-0.1738281-1.9140625-0.2612305-3.7578125-0.2612305-5.53125c0-10.7519531,2.140625-18.5820313,6.4208984-23.4882813  c4.7685547-5.3574219,12.5991211-8.0371094,23.4921875-8.0371094l15.1391602,0.1035156  c0.765625,0,1.496582,0.0351563,2.1923828,0.1054688c5.7080078,0.3125,10.1108398,1.1835938,13.2075195,2.609375  c7.2392578,3.1660156,11.0673828,10.8378906,11.4848633,23.0175781v1.9316406c0,1.3222656-0.3129883,3.2871094-0.9394531,5.8964844  c-0.034668,0.1054688-0.034668,0.2617188,0,0.4707031c0,0.1738281,0.0527344,0.2773438,0.1567383,0.3125  c3.8286133,5.8808594,5.3774414,10.0039063,4.6464844,12.3691406c-0.9746094,1.8457031-4.1767578,2.2285156-9.605957,1.1484375  c-0.2783203-0.1035156-0.5395508-0.0859375-0.7832031,0.0527344c-0.2783203,0.2089844-0.4174805,0.453125-0.4174805,0.7304688  c-0.1044922,0.2441406-0.0693359,0.5039063,0.1044922,0.7832031c0.1738281,0.2441406,0.4003906,0.3828125,0.6787109,0.4179688  c6.8911133,1.53125,10.8583984,0.7480469,11.9023438-2.3496094c1.2182617-2.7128906-0.3129883-7.3242188-4.59375-13.8300781  c0.6264648-2.609375,0.9394531-4.6113281,0.9394531-6.0019531v-0.5234375  c1.0791016,0.4179688,1.8969727,1.3398438,2.4536133,2.7675781c0.1743164,0.2773438,0.3481445,0.4863281,0.5219727,0.625  c0.2783203,0.1054688,0.5395508,0.1054688,0.7832031,0c0.2783203-0.1035156,0.4873047-0.2773438,0.6264648-0.5214844  c0.765625-1.7050781,1.6879883-2.6621094,2.7666016-2.8710938C91.9858398,51.3388672,93.1171875,51.8603516,93.8476563,53.0791016z   M21.9624023,44.8837891c-1.3222656,1.4277344-1.9833984,3.0800781-1.9833984,4.9589844  c0,1.984375,0.6611328,3.6367188,1.9833984,4.9589844c1.3920898,1.3925781,3.0454102,2.0878906,4.9594727,2.0878906  c2.0185547,0,3.671875-0.6953125,4.9594727-2.0878906c1.3920898-1.2871094,2.0878906-2.9414063,2.0878906-4.9589844  c0-1.9140625-0.6958008-3.5664063-2.0878906-4.9589844c-1.3227539-1.3203125-2.9755859-1.9824219-4.9594727-1.9824219  C25.0424805,42.9013672,23.3891602,43.5634766,21.9624023,44.8837891z M45.1933594,22.5458984  c1.53125-2.609375,2.8364258-3.9667969,3.9150391-4.0703125c0.9750977,0.1386719,1.9663086,1.5292969,2.9760742,4.1757813  L45.1933594,22.5458984z M63.8300781,46.8154297c-0.3476563,0.3476563-0.5219727,0.7304688-0.5219727,1.1484375  s0.1743164,0.7832031,0.5219727,1.0957031c0.2436523,0.2441406,0.5922852,0.3652344,1.0444336,0.3652344  c0.4174805,0,0.765625-0.1210938,1.0439453-0.3652344c0.3481445-0.3476563,0.5219727-0.7128906,0.5219727-1.0957031  c0-0.3476563-0.1738281-0.7304688-0.5219727-1.1484375c-0.2783203-0.2421875-0.6264648-0.3652344-1.0439453-0.3652344  C64.4223633,46.4501953,64.0737305,46.5732422,63.8300781,46.8154297z M64.456543,45.9287109  c1.0791016,0,1.9667969,0.3476563,2.6625977,1.0429688c0.765625,0.8007813,1.1484375,1.7578125,1.1484375,2.8710938  c0,1.1484375-0.3828125,2.0527344-1.1484375,2.7148438c-0.6958008,0.8007813-1.5834961,1.1992188-2.6625977,1.1992188  c-1.1484375,0-2.0878906-0.3984375-2.8188477-1.1992188c-0.800293-0.6972656-1.2006836-1.6015625-1.2006836-2.7148438  c0-1.0429688,0.4003906-2,1.2006836-2.8710938C62.4033203,46.2763672,63.3427734,45.9287109,64.456543,45.9287109z   M59.6538086,45.1455078c-1.3222656,1.4277344-1.9833984,3.0800781-1.9833984,4.9589844  c0,1.9824219,0.6611328,3.6367188,1.9833984,4.9570313c1.3925781,1.3925781,3.0458984,2.0878906,4.9594727,2.0878906  c2.019043,0,3.6713867-0.6953125,4.9594727-2.0878906c1.3920898-1.2871094,2.0878906-2.9394531,2.0878906-4.9570313  c0-1.9140625-0.6958008-3.5664063-2.0878906-4.9589844c-1.3222656-1.3222656-2.9755859-1.9824219-4.9594727-1.9824219  C62.7338867,43.1630859,61.0810547,43.8232422,59.6538086,45.1455078z M49.9960938,57.2548828  c-1.4960938,1.9140625-3.0102539,2.921875-4.5419922,3.0273438c-1.4960938-0.1054688-2.9926758-1.1132813-4.4892578-3.0273438  c-0.2089844-0.2792969-0.4521484-0.4179688-0.730957-0.4179688c-0.2431641-0.0351563-0.5043945,0.0527344-0.7832031,0.2617188  c-0.2431641,0.1035156-0.3828125,0.3300781-0.4174805,0.6777344c0,0.2441406,0.0874023,0.5039063,0.2612305,0.7832031  c2.0185547,2.5390625,4.0717773,3.8105469,6.159668,3.8105469c2.1235352,0,4.1943359-1.2714844,6.2124023-3.8105469  c0.1743164-0.2441406,0.2265625-0.5039063,0.1567383-0.7832031c0-0.3125-0.121582-0.5742188-0.3657227-0.7832031  c-0.2084961-0.1386719-0.4692383-0.1914063-0.7827148-0.15625C50.3964844,56.8369141,50.1704102,56.9755859,49.9960938,57.2548828z   M74.949707,76.8271484c-22.1342773-14.1269531-40.8061523-14.4746094-56.0151367-1.0429688l-0.1044922,0.1035156  c-0.2084961,0.0703125,0,0.2089844,0.6264648,0.4179688c4.1762695,2.0878906,10.7021484,3.1308594,19.5766602,3.1308594  c15.9047852,0,27.2680664-0.7304688,34.0893555-2.1914063L74.949707,76.8271484z M29.0097656,47.4423828  c-0.2431641-0.3144531-0.5566406-0.4707031-0.9394531-0.4707031c-0.4521484,0-0.8349609,0.15625-1.1484375,0.4707031  c-0.2783203,0.3476563-0.4174805,0.7128906-0.4174805,1.0957031c0,0.3476563,0.1391602,0.6953125,0.4174805,1.0449219  c0.2788086,0.2421875,0.6611328,0.3652344,1.1484375,0.3652344c0.3828125,0,0.6962891-0.1230469,0.9394531-0.3652344  c0.3481445-0.3144531,0.5224609-0.6621094,0.5224609-1.0449219C29.5322266,48.1201172,29.3579102,47.7548828,29.0097656,47.4423828z   M27.652832,54.2802734c-1.1137695,0-2.0708008-0.3671875-2.8710938-1.0957031  c-0.765625-0.765625-1.1489258-1.7050781-1.1489258-2.8203125c0-1.078125,0.3833008-2,1.1489258-2.765625  s1.7226563-1.1484375,2.8710938-1.1484375c1.0092773,0,1.8969727,0.3828125,2.6621094,1.1484375  c0.765625,0.8359375,1.1489258,1.7578125,1.1489258,2.765625c0,1.0449219-0.3833008,1.984375-1.1489258,2.8203125  C29.5498047,53.9130859,28.6621094,54.2802734,27.652832,54.2802734z M7.8671875,64.5615234  c0.8007813,4.4199219,2.2275391,7.9863281,4.2807617,10.6992188l-0.1044922,0.1054688  c-3.862793,0.4863281-6.1425781-0.0703125-6.8383789-1.6699219c-0.6264648-1.8457031,0.2089844-4.8027344,2.5058594-8.8730469  L7.8671875,64.5615234z"></path></g><g transform="matrix(1.1886474057310201,0,0,1.1886474057310201,140.65810922428858,9.114119939920904)" fill="#334155"><path d="M18.809 25.098 c3.1836 0.87891 5.3125 2.9688 5.3125 6.9922 c0 4.7656 -2.8906 7.9102 -8.8477 7.9102 l-11.621 0 l0 -28.223 l9.1406 0 c6.0938 0 9.2969 2.9297 9.2969 7.7344 c0 2.4805 -1.0742 4.5117 -3.2813 5.5859 z M12.852 16.641 l-3.5547 0 l0 6.6406 l3.8086 0 c2.5 0 3.5938 -1.4844 3.5938 -3.3984 c0 -1.875 -1.2305 -3.2422 -3.8477 -3.2422 z M14.18 34.9805 c3.1641 0 4.2578 -1.6992 4.2578 -3.5352 c0 -1.875 -1.0742 -3.6523 -4.375 -3.6523 l-4.7656 0 l0 7.1875 l4.8828 0 z M45.05859375 34.5508 c0 2.4609 0.23438 4.0234 0.48828 4.9023 l0 0.54688 l-5.2539 0 l-0.44922 -2.1875 c-1.5039 1.8164 -4.1016 2.5781 -6.4453 2.5781 c-3.1641 0 -6.25 -1.4063 -6.25 -5.5859 c0 -4.1602 3.1055 -5.5664 7.3047 -6.4844 l3.3008 -0.74219 c1.4258 -0.33203 1.9336 -0.82031 1.9336 -1.6406 c0 -1.9727 -1.7969 -2.5195 -3.3789 -2.5195 c-2.0313 0 -3.5742 0.80078 -3.9258 3.0664 l-4.9805 -0.89844 c0.83984 -4.1602 3.8867 -6.0547 9.2188 -6.0547 c4.0234 0 8.4375 1.1914 8.4375 7.2461 l0 7.7734 z M35.15629375 36.582 c2.6758 0 4.8242 -1.7773 4.8242 -5.7617 l-4.7656 1.3477 c-1.5625 0.37109 -2.6953 0.91797 -2.6953 2.2656 c0 1.4453 1.1914 2.1484 2.6367 2.1484 z M62.3241875 19.531 c5.2734 0 9.6484 3.9063 9.6484 10.469 s-4.375 10.469 -9.6484 10.469 c-2.7734 0 -5.1953 -1.1133 -6.3281 -3.0859 l-0.13672 2.6172 l-5.332 0 l0 -30 l5.625 0 l0 12.363 c1.1719 -1.8164 3.5156 -2.832 6.1719 -2.832 z M61.015187499999996 35.8008 c2.9883 0 5.332 -2.207 5.332 -5.8008 c0 -3.6133 -2.3438 -5.8203 -5.332 -5.8203 c-2.9688 0 -5.3125 2.3047 -5.3125 5.8203 s2.3242 5.8008 5.3125 5.8008 z M89.35578125 19.922 l5.7617 0 l-12.383 29.531 l-5.7031 0 l4.5898 -10.273 l-8.2617 -19.258 l6.1328 0 l4.7852 13.203 z M110.23478125 19.531 c4.4922 0 7.1875 2.5 7.1875 7.5195 l0 12.949 l-5.6445 0 l0 -12.031 c0 -2.9492 -1.6406 -3.9258 -3.6523 -3.9258 c-2.0898 0 -4.375 1.0352 -4.4141 4.8828 l0 11.074 l-5.625 0 l0 -30 l5.625 0 l0 12.324 c1.4258 -1.7383 3.6719 -2.793 6.5234 -2.793 z M139.296875 34.5508 c0 2.4609 0.23438 4.0234 0.48828 4.9023 l0 0.54688 l-5.2539 0 l-0.44922 -2.1875 c-1.5039 1.8164 -4.1016 2.5781 -6.4453 2.5781 c-3.1641 0 -6.25 -1.4063 -6.25 -5.5859 c0 -4.1602 3.1055 -5.5664 7.3047 -6.4844 l3.3008 -0.74219 c1.4258 -0.33203 1.9336 -0.82031 1.9336 -1.6406 c0 -1.9727 -1.7969 -2.5195 -3.3789 -2.5195 c-2.0313 0 -3.5742 0.80078 -3.9258 3.0664 l-4.9805 -0.89844 c0.83984 -4.1602 3.8867 -6.0547 9.2188 -6.0547 c4.0234 0 8.4375 1.1914 8.4375 7.2461 l0 7.7734 z M129.394575 36.582 c2.6758 0 4.8242 -1.7773 4.8242 -5.7617 l-4.7656 1.3477 c-1.5625 0.37109 -2.6953 0.91797 -2.6953 2.2656 c0 1.4453 1.1914 2.1484 2.6367 2.1484 z M147.65626875 16.914 c-1.7773 0 -3.2617 -1.4453 -3.2617 -3.2422 c0 -1.7773 1.4844 -3.2227 3.2617 -3.2227 c1.7383 0 3.2227 1.4453 3.2227 3.2227 c0 1.7969 -1.4844 3.2422 -3.2227 3.2422 z M140.66406875 49.4141 l0 -4.3945 c3.4766 0 4.1016 -1.5039 4.1016 -5.7031 l0 -19.395 l5.7031 0 l0 19.395 c0 6.9141 -2.7344 10.098 -9.8047 10.098 z"></path></g></svg>