<svg version="1.0" width="395.99999999999994" height="213.41414308625556" viewBox="0 0 162.5 87.57524810989024" xmlns="http://www.w3.org/2000/svg">
  <defs></defs>
  <g transform="matrix(1.389007, 0, 0, 1.389007, 16.770706, -25.808241)" fill="#c69f8d">
    <g>
      <path xmlns="http://www.w3.org/2000/svg" fill-rule="evenodd" clip-rule="evenodd" d="M 93.848 53.079 C 94.613 54.263 94.996 56.089 94.996 58.56 C 94.892 67.327 89.811 73.591 79.752 77.349 C 79.091 77.696 78.482 77.958 77.925 78.132 L 77.769 78.132 L 77.665 78.237 L 77.403 78.237 L 73.592 79.28 C 66.736 80.776 55.216 81.524 39.033 81.524 C 28.801 81.524 21.545 80.185 17.264 77.505 L 17.264 77.454 L 17.212 77.454 L 17.212 77.349 L 17.003 77.349 L 14.915 75.417 L 14.915 75.366 C 11.992 72.095 10.199 67.415 9.538 61.325 C 9.364 59.411 9.277 57.567 9.277 55.794 C 9.277 45.042 11.417 37.212 15.698 32.306 C 20.466 26.948 28.297 24.269 39.19 24.269 L 54.329 24.372 C 55.095 24.372 55.826 24.407 56.521 24.478 C 62.229 24.79 66.632 25.661 69.729 27.087 C 76.968 30.253 80.796 37.925 81.214 50.104 L 81.214 52.036 C 81.214 53.358 80.901 55.323 80.274 57.933 C 80.24 58.038 80.24 58.194 80.274 58.403 C 80.274 58.577 80.327 58.681 80.431 58.716 C 84.26 64.597 85.809 68.72 85.078 71.085 C 84.103 72.931 80.901 73.313 75.472 72.233 C 75.193 72.13 74.932 72.147 74.688 72.286 C 74.41 72.495 74.271 72.739 74.271 73.017 C 74.167 73.261 74.202 73.521 74.375 73.8 C 74.549 74.044 74.776 74.183 75.054 74.218 C 81.945 75.749 85.913 74.966 86.957 71.868 C 88.175 69.155 86.644 64.544 82.363 58.038 C 82.989 55.429 83.302 53.427 83.302 52.036 L 83.302 51.513 C 84.381 51.931 85.199 52.853 85.756 54.28 C 85.93 54.558 86.104 54.767 86.278 54.905 C 86.556 55.011 86.817 55.011 87.061 54.905 C 87.339 54.802 87.548 54.628 87.688 54.384 C 88.453 52.679 89.375 51.722 90.454 51.513 C 91.986 51.339 93.117 51.86 93.848 53.079 Z M 21.962 44.884 C 20.64 46.312 19.979 47.964 19.979 49.843 C 19.979 51.827 20.64 53.479 21.962 54.802 C 23.354 56.194 25.008 56.89 26.922 56.89 C 28.94 56.89 30.594 56.194 31.881 54.802 C 33.273 53.515 33.969 51.86 33.969 49.843 C 33.969 47.929 33.273 46.276 31.881 44.884 C 30.559 43.563 28.906 42.901 26.922 42.901 C 25.042 42.901 23.389 43.563 21.962 44.884 Z M 45.193 22.546 C 46.725 19.937 48.03 18.579 49.108 18.476 C 50.083 18.614 51.075 20.005 52.084 22.651 L 45.193 22.546 Z M 63.83 46.815 C 63.482 47.163 63.308 47.546 63.308 47.964 C 63.308 48.382 63.482 48.747 63.83 49.06 C 64.074 49.304 64.422 49.425 64.875 49.425 C 65.292 49.425 65.64 49.304 65.918 49.06 C 66.267 48.712 66.44 48.347 66.44 47.964 C 66.44 47.616 66.267 47.233 65.918 46.815 C 65.64 46.573 65.292 46.45 64.875 46.45 C 64.422 46.45 64.074 46.573 63.83 46.815 Z M 64.457 45.929 C 65.536 45.929 66.423 46.276 67.119 46.972 C 67.885 47.772 68.268 48.729 68.268 49.843 C 68.268 50.991 67.885 51.896 67.119 52.558 C 66.423 53.358 65.536 53.757 64.457 53.757 C 63.308 53.757 62.369 53.358 61.638 52.558 C 60.837 51.86 60.437 50.956 60.437 49.843 C 60.437 48.8 60.837 47.843 61.638 46.972 C 62.403 46.276 63.343 45.929 64.457 45.929 Z M 59.654 45.146 C 58.332 46.573 57.67 48.226 57.67 50.104 C 57.67 52.087 58.332 53.741 59.654 55.062 C 61.046 56.454 62.7 57.149 64.613 57.149 C 66.632 57.149 68.285 56.454 69.573 55.062 C 70.965 53.774 71.661 52.122 71.661 50.104 C 71.661 48.19 70.965 46.538 69.573 45.146 C 68.25 43.823 66.597 43.163 64.613 43.163 C 62.734 43.163 61.081 43.823 59.654 45.146 Z M 74.95 76.827 C 52.815 62.7 34.144 62.353 18.935 75.784 L 18.83 75.888 C 18.622 75.958 18.83 76.097 19.457 76.306 C 23.633 78.394 30.159 79.437 39.033 79.437 C 54.938 79.437 66.301 78.706 73.123 77.245 L 74.95 76.827 Z M 29.01 47.442 C 28.767 47.128 28.453 46.972 28.07 46.972 C 27.618 46.972 27.235 47.128 26.922 47.442 C 26.644 47.79 26.504 48.155 26.504 48.538 C 26.504 48.886 26.644 49.233 26.922 49.583 C 27.201 49.825 27.583 49.948 28.07 49.948 C 28.453 49.948 28.767 49.825 29.01 49.583 C 29.358 49.269 29.532 48.921 29.532 48.538 C 29.532 48.12 29.358 47.755 29.01 47.442 Z M 27.653 54.28 C 26.539 54.28 25.582 53.913 24.782 53.185 C 24.016 52.419 23.633 51.479 23.633 50.364 C 23.633 49.286 24.016 48.364 24.782 47.599 C 25.547 46.833 26.504 46.45 27.653 46.45 C 28.662 46.45 29.55 46.833 30.315 47.599 C 31.081 48.435 31.464 49.356 31.464 50.364 C 31.464 51.409 31.081 52.349 30.315 53.185 C 29.55 53.913 28.662 54.28 27.653 54.28 Z M 7.867 64.562 C 8.668 68.981 10.095 72.548 12.148 75.261 L 12.043 75.366 C 8.181 75.853 5.901 75.296 5.205 73.696 C 4.579 71.851 5.414 68.894 7.711 64.823 L 7.867 64.562 Z" style="transform-origin : 50% 50%;  : initial; transform-box : initial;  : initial;"></path>
    </g>
  </g>
  <g transform="matrix(1.389007, 0, 0, -1.341156, 174.047775, 138.624817)" fill="#c69f8d" style="">
    <g>
      <path xmlns="http://www.w3.org/2000/svg" fill-rule="evenodd" clip-rule="evenodd" d="M -62.842 58.415 C -64.338 60.329 -65.852 61.337 -67.384 61.442 C -68.88 61.337 -70.377 60.329 -71.873 58.415 C -72.082 58.136 -72.325 57.997 -72.604 57.997 C -72.847 57.962 -73.109 58.05 -73.387 58.259 C -73.63 58.362 -73.77 58.589 -73.805 58.936 C -73.805 59.181 -73.717 59.44 -73.544 59.72 C -71.525 62.259 -69.472 63.53 -67.384 63.53 C -65.26 63.53 -63.19 62.259 -61.171 59.72 C -60.997 59.475 -60.945 59.216 -61.015 58.936 C -61.015 58.624 -61.136 58.362 -61.38 58.153 C -61.589 58.014 -61.85 57.962 -62.163 57.997 C -62.442 57.997 -62.668 58.136 -62.842 58.415 Z" style="transform-origin: 1167.16px 640.66px; fill: rgb(242, 236, 234);"></path>
    </g>
  </g>
</svg>