<svg version="1.0" width="395.99999999999994" height="213.41414308625556" viewBox="0 0 162.5 87.57524810989024" class="css-1j8o68f" xmlns="http://www.w3.org/2000/svg">
  <defs></defs>
  <g id="SvgjsG8332" featurekey="2ou6gm-0" transform="matrix(1.3890067541979432,0,0,1.3890067541979432,-6.9502178281611116,-25.66271365495204)" fill="#c69f8d">
    <path xmlns="http://www.w3.org/2000/svg" fill-rule="evenodd" clip-rule="evenodd" d="M 108.848 53.079 C 109.613 54.263 109.996 56.089 109.996 58.56 C 109.892 67.327 104.811 73.591 94.752 77.349 C 94.091 77.696 93.482 77.958 92.925 78.132 L 92.769 78.132 L 92.665 78.237 L 92.403 78.237 L 88.592 79.28 C 81.736 80.776 70.216 81.524 54.033 81.524 C 43.801 81.524 36.545 80.185 32.264 77.505 L 32.264 77.454 L 32.212 77.454 L 32.212 77.349 L 32.003 77.349 L 29.915 75.417 L 29.915 75.366 C 26.992 72.095 25.199 67.415 24.538 61.325 C 24.364 59.411 24.277 57.567 24.277 55.794 C 24.277 45.042 26.417 37.212 30.698 32.306 C 35.466 26.948 43.297 24.269 54.19 24.269 L 69.329 24.372 C 70.095 24.372 70.826 24.407 71.521 24.478 C 77.229 24.79 81.632 25.661 84.729 27.087 C 91.968 30.253 95.796 37.925 96.214 50.104 L 96.214 52.036 C 96.214 53.358 95.901 55.323 95.274 57.933 C 95.24 58.038 95.24 58.194 95.274 58.403 C 95.274 58.577 95.327 58.681 95.431 58.716 C 99.26 64.597 100.809 68.72 100.078 71.085 C 99.103 72.931 95.901 73.313 90.472 72.233 C 90.193 72.13 89.932 72.147 89.688 72.286 C 89.41 72.495 89.271 72.739 89.271 73.017 C 89.167 73.261 89.202 73.521 89.375 73.8 C 89.549 74.044 89.776 74.183 90.054 74.218 C 96.945 75.749 100.913 74.966 101.957 71.868 C 103.175 69.155 101.644 64.544 97.363 58.038 C 97.989 55.429 98.302 53.427 98.302 52.036 L 98.302 51.513 C 99.381 51.931 100.199 52.853 100.756 54.28 C 100.93 54.558 101.104 54.767 101.278 54.905 C 101.556 55.011 101.817 55.011 102.061 54.905 C 102.339 54.802 102.548 54.628 102.688 54.384 C 103.453 52.679 104.375 51.722 105.454 51.513 C 106.986 51.339 108.117 51.86 108.848 53.079 Z M 36.962 44.884 C 35.64 46.312 34.979 47.964 34.979 49.843 C 34.979 51.827 35.64 53.479 36.962 54.802 C 38.354 56.194 40.008 56.89 41.922 56.89 C 43.94 56.89 45.594 56.194 46.881 54.802 C 48.273 53.515 48.969 51.86 48.969 49.843 C 48.969 47.929 48.273 46.276 46.881 44.884 C 45.559 43.563 43.906 42.901 41.922 42.901 C 40.042 42.901 38.389 43.563 36.962 44.884 Z M 60.193 22.546 C 61.725 19.937 63.03 18.579 64.108 18.476 C 65.083 18.614 66.075 20.005 67.084 22.651 L 60.193 22.546 Z M 77.83 49.815 C 77.482 50.163 77.308 50.546 77.308 50.964 C 77.308 51.382 77.482 51.747 77.83 52.06 C 78.074 52.304 78.422 52.425 78.875 52.425 C 79.292 52.425 79.64 52.304 79.918 52.06 C 80.267 51.712 80.44 51.347 80.44 50.964 C 80.44 50.616 80.267 50.233 79.918 49.815 C 79.64 49.573 79.292 49.45 78.875 49.45 C 78.422 49.45 78.074 49.573 77.83 49.815 Z M 79.457 45.929 C 80.536 45.929 81.423 46.276 82.119 46.972 C 82.885 47.772 83.268 48.729 83.268 49.843 C 83.268 50.991 82.885 51.896 82.119 52.558 C 81.423 53.358 80.536 53.757 79.457 53.757 C 78.308 53.757 77.369 53.358 76.638 52.558 C 75.837 51.86 75.437 50.956 75.437 49.843 C 75.437 48.8 75.837 47.843 76.638 46.972 C 77.403 46.276 78.343 45.929 79.457 45.929 Z M 74.654 45.146 C 73.332 46.573 72.67 48.226 72.67 50.104 C 72.67 52.087 73.332 53.741 74.654 55.062 C 76.046 56.454 77.7 57.149 79.613 57.149 C 81.632 57.149 83.285 56.454 84.573 55.062 C 85.965 53.774 86.661 52.122 86.661 50.104 C 86.661 48.19 85.965 46.538 84.573 45.146 C 83.25 43.823 81.597 43.163 79.613 43.163 C 77.734 43.163 76.081 43.823 74.654 45.146 Z M 63.698 56.826 C 61.475 56.78 62.142 56.801 60.61 56.802 C 59.114 56.697 60.629 56.78 58.146 56.736 C 57.797 56.73 55.513 56.837 55.234 56.837 C 55.043 56.906 54.729 56.89 54.451 57.099 C 54.208 57.202 54.068 57.429 54.033 57.776 C 54.033 58.021 54.121 58.28 54.294 58.56 C 56.313 61.099 58.366 62.37 60.454 62.37 C 62.578 62.37 64.648 61.099 66.667 58.56 C 66.841 58.315 66.893 58.056 66.823 57.776 C 66.823 57.464 66.702 57.202 66.458 56.993 C 66.249 56.854 65.988 56.802 65.675 56.837 C 65.396 56.837 65.723 56.788 63.698 56.826 Z M 89.95 76.827 C 67.815 62.7 49.144 62.353 33.935 75.784 L 33.83 75.888 C 33.622 75.958 33.83 76.097 34.457 76.306 C 38.633 78.394 45.159 79.437 54.033 79.437 C 69.938 79.437 81.301 78.706 88.123 77.245 L 89.95 76.827 Z M 43.01 50.494 C 42.767 50.18 42.453 49.972 42.07 49.972 C 41.618 49.972 41.235 50.128 40.922 50.442 C 40.644 50.79 40.504 51.155 40.504 51.538 C 40.504 51.886 40.644 52.233 40.922 52.583 C 41.201 52.825 41.531 52.948 42.018 52.948 C 42.401 52.948 42.767 52.825 43.01 52.583 C 43.358 52.269 43.532 51.921 43.532 51.538 C 43.532 51.12 43.358 50.807 43.01 50.494 Z M 42.653 54.28 C 41.539 54.28 40.582 53.913 39.782 53.185 C 39.016 52.419 38.633 51.479 38.633 50.364 C 38.633 49.286 39.016 48.364 39.782 47.599 C 40.547 46.833 41.504 46.45 42.653 46.45 C 43.662 46.45 44.55 46.833 45.315 47.599 C 46.081 48.435 46.464 49.356 46.464 50.364 C 46.464 51.409 46.081 52.349 45.315 53.185 C 44.55 53.913 43.662 54.28 42.653 54.28 Z M 22.867 64.562 C 23.668 68.981 25.095 72.548 27.148 75.261 L 27.043 75.366 C 23.181 75.853 20.901 75.296 20.205 73.696 C 19.579 71.851 20.414 68.894 22.711 64.823 L 22.867 64.562 Z"></path>
  </g>
</svg>